#!OML:ASF E:/inclinewalkrobotboard/Project1/Captureday1/Session1/subject1.ASF
:FULLY-SPECIFIED
:DEGREES
163
root 0 0 0 10.47550966523599 25.238910284020708 -11.425963953320093
lowerback 10.19307182212819 2.7648084199203993 0.6468389936954204
upperback 1.3699370009681369 3.5393685075896726 -1.7704176469716022
thorax -4.23343879849211 1.8301949803044362 -2.5059589958371244
lowerneck -9.28790069679885 -5.189821266502262 -7.689213491757184
upperneck 2.861674376649617 -6.056068443118057 5.526747952386874
head 3.452413542210722 -2.8434968610495357 2.7311964946242266
rclavicle -1.1689810030611922E-14 7.003855163142627E-16
rhumerus 10.791342534123276 -14.435924178907245 -62.384227024888546
rradius 21.104036347679177
rwrist 54.91487807700943
rhand -8.18152574719806 21.316028410405096
rfingers 7.125019999999932
rthumb 17.72705109098514 -8.424641732244538
lclavicle -5.906233707894106E-15 6.109528412522117E-15
lhumerus -16.99534217549862 10.642247934391687 70.92889236611828
lradius 36.46072859337176
lwrist -36.15119507571322
lhand -10.432217048399274 14.355401247171997
lfingers 7.056081385790658
lthumb 15.293453048997643 67.56060426073807
rfemur 14.58531735143304 8.745626742398438 37.05504241050649
rtibia 23.81143352496226
rfoot -17.944373995444202 -3.3325528487276737
rtoes -2.0520627441482358
lfemur -33.771464416330055 -4.138966384007842 -13.233438220699995
ltibia 16.772952077142403
lfoot -9.796740659000916 9.997220833026763
ltoes 11.943339373829286
164
root 0 0 0 10.393009403526545 25.17686345243116 -11.456858759726796
lowerback 10.147846219582956 2.7654076849415756 0.5960265613627773
upperback 1.3498085595580747 3.5367972747946594 -1.7794736686764279
thorax -4.23035678466308 1.8288809109051833 -2.4858727630456756
lowerneck -9.338599282045106 -5.206872775521304 -7.70179828895846
upperneck 2.9084268512933384 -6.084948924596142 5.5380828036460406
head 3.4785483095851246 -2.856338894924875 2.7326425781667316
rclavicle -1.1682196220659077E-14 6.526498012386047E-16
rhumerus 10.193819479436302 -14.296670888227597 -62.73643927721439
rradius 21.003835552985016
rwrist 55.03376959833099
rhand -8.097530700157986 21.37394389675914
rfingers 7.12501999999993
rthumb 17.80880464225127 -8.361936747948217
lclavicle -6.0220680950423745E-15 6.172307734834833E-15
lhumerus -17.133477913653135 10.201186000980453 71.2022291799156
lradius 36.59701430114126
lwrist -36.26971401920056
lhand -10.513616603648044 14.365754905000362
lfingers 7.055275527602732
lthumb 15.21241027466204 69.03384898489949
rfemur 14.372129489606053 8.48040970880157 36.8818144498286
rtibia 24.723478333861014
rfoot -16.36327070386234 -2.8880790938053824
rtoes -1.8454754402271458
lfemur -32.38793809186494 -3.9177849411843173 -14.25187651823925
ltibia 18.0460143236876
lfoot -9.560830269891582 9.053183327012277
ltoes 12.424632137290146
165
root 0 0 0 10.338409409585974 25.130854530843013 -11.470795538232954
lowerback 10.125354238550308 2.7669835244617813 0.5548523339453557
upperback 1.3387315160098634 3.535617594132876 -1.7866211866582948
thorax -4.2302871769654224 1.8282437295198743 -2.469543996148283
lowerneck -9.378189243543058 -5.219367997542669 -7.708623185080418
upperneck 2.9484813499358467 -6.105818549284043 5.543263102160186
head 3.499644983012237 -2.8655737206663945 2.7322975246905807
rclavicle -1.1634583827206686E-14 5.921359081618558E-16
rhumerus 9.587852850442857 -14.157990639428133 -63.11879943858517
rradius 20.87175568486869
rwrist 55.190183160096296
rhand -8.016192630853382 21.43170987680584
rfingers 7.125019999999928
rthumb 17.88816873136889 -8.299235278509673
lclavicle -6.140741324419194E-15 6.241652121571318E-15
lhumerus -17.505462800865182 9.679297455468642 71.63011040536836
lradius 36.65872304635774
lwrist -36.44071920722972
lhand -10.548030697538941 14.37021666930135
lfingers 7.054200508489417
lthumb 15.17568666044776 70.18669081769018
rfemur 13.704618152373797 8.1701188694747 36.6233742724635
rtibia 25.814292869952713
rfoot -14.759751286971692 -2.5362155571508183
rtoes -1.2789655290369049
lfemur -30.634874586282457 -3.5731005471772574 -15.66824383332784
ltibia 19.77140894183165
lfoot -9.405398753023805 7.732811363831516
ltoes 12.815491711249976
166
root 0 0 0 10.281484770460047 25.091123625016532 -11.472053239168709
lowerback 10.125612624924306 2.7717732615966293 0.4915648439880749
upperback 1.3329681512513976 3.53551647711535 -1.7976458197558656
thorax -4.237510956257547 1.8281387110998892 -2.4447325882724082
lowerneck -9.433978464665188 -5.234770170740504 -7.714199183687534
upperneck 2.9979905386632257 -6.130259835104264 5.541185424292279
head 3.5264937993776737 -2.8762852075018817 2.7284812873727367
rclavicle -1.1511038177299272E-14 4.795689439312203E-16
rhumerus 8.630503783230692 -13.98170473446834 -63.743583154238245
rradius 20.636113771373566
rwrist 55.48675747069832
rhand -7.906584486764103 21.52146032912125
rfingers 7.125019999999925
rthumb 17.995708136270547 -8.20191094624553
lclavicle -6.31114265558662E-15 6.366477681463676E-15
lhumerus -18.360539102590756 8.79944199644141 72.46661694661256
lradius 36.594992159043976
lwrist -36.73416428301391
lhand -10.59385636042375 14.403226254163002
lfingers 7.053151718738767
lthumb 15.128372586013175 71.5373744095548
rfemur 11.11104801870573 7.43249741886871 35.890943168799694
rtibia 28.31043339145151
rfoot -11.445557963071124 -2.0627478529736702
rtoes 0.7216494989052498
lfemur -26.030949309004612 -2.650652215307216 -19.40646189163385
ltibia 24.041279680763978
lfoot -9.369224354245965 4.332922208155044
ltoes 13.320393736851408
